# xmcd
#
# Track frame offsets:
#	150
#	32335
#	37645
#	72555
#	123790
#	156750
#	213670
#	235465
#	262425
#
# Disc length: 3966 seconds
#
# Revision: 1
# Processed by: cddbd v1.5.1PL2 Copyright (c) Steve Scherf et al.
# Submitted via: EasyCDDAExtractor 8.0.2.1
#
DISCID=7c0f7c09
DTITLE=Black Sabbath - Colston Hall Bristol 02-05-80 Disc 2
DYEAR=1980
DGENRE=Hard Rock
TTITLE0=Lonely Is The Word
TTITLE1=Bass Solo
TTITLE2=Black Sabbath
TTITLE3=Heaven and Hell
TTITLE4=Iron Man
TTITLE5=Guitar Solo
TTITLE6=Die Young
TTITLE7=Paranoid
TTITLE8=Children Of The Grave
EXTD=
EXTT0=
EXTT1=
EXTT2=
EXTT3=
EXTT4=
EXTT5=
EXTT6=
EXTT7=
EXTT8=
PLAYORDER=
